HIERARCHY
ROOT Hips
{
 OFFSET 0.000000 0.000000 0.000000
 CHANNELS 6 Xposition Yposition Zposition Yrotation Xrotation Zrotation
 JOINT Chest
 {
  OFFSET 0.000000 10.354800 0.006500
  CHANNELS 3 Yrotation Xrotation Zrotation
  JOINT Chest2
  {
   OFFSET 0.000000 10.435800 -0.013200
   CHANNELS 3 Yrotation Xrotation Zrotation
   JOINT Chest3
   {
    OFFSET 0.000000 10.393700 0.000000
    CHANNELS 3 Yrotation Xrotation Zrotation
    JOINT Chest4
    {
     OFFSET 0.000000 10.383100 0.000000
     CHANNELS 3 Yrotation Xrotation Zrotation
     JOINT Neck
     {
      OFFSET 0.000000 15.694000 0.000000
      CHANNELS 3 Yrotation Xrotation Zrotation
      JOINT Head
      {
       OFFSET 0.000000 9.711000 -0.028000
       CHANNELS 3 Yrotation Xrotation Zrotation
       End Site
       {
        OFFSET 0.000000 18.578700 -0.014800
       }
      }
     }
     JOINT RightCollar
     {
      OFFSET -3.157200 10.367500 0.000000
      CHANNELS 3 Yrotation Xrotation Zrotation
      JOINT RightShoulder
      {
       OFFSET -14.482500 0.000000 0.000000
       CHANNELS 3 Yrotation Xrotation Zrotation
       JOINT RightElbow
       {
        OFFSET 0.000000 -31.707800 0.000000
        CHANNELS 3 Yrotation Xrotation Zrotation
        JOINT RightWrist
        {
         OFFSET 0.000000 -25.659300 0.000000
         CHANNELS 3 Yrotation Xrotation Zrotation
         End Site
         {
          OFFSET 0.000000 -18.994300 0.000000
         }
        }
       }
      }
     }
     JOINT LeftCollar
     {
      OFFSET 3.157200 10.367500 0.000000
      CHANNELS 3 Yrotation Xrotation Zrotation
      JOINT LeftShoulder
      {
       OFFSET 14.482500 0.000000 0.000000
       CHANNELS 3 Yrotation Xrotation Zrotation
       JOINT LeftElbow
       {
        OFFSET 0.000000 -31.707800 0.000000
        CHANNELS 3 Yrotation Xrotation Zrotation
        JOINT LeftWrist
        {
         OFFSET 0.000000 -25.659300 0.000000
         CHANNELS 3 Yrotation Xrotation Zrotation
         End Site
         {
          OFFSET 0.000000 -18.994300 0.000000
         }
        }
       }
      }
     }
    }
   }
  }
 }
 JOINT RightHip
 {
  OFFSET -8.365600 -0.032100 -0.003200
  CHANNELS 3 Yrotation Xrotation Zrotation
  JOINT RightKnee
  {
   OFFSET 0.000000 -43.980000 0.003100
   CHANNELS 3 Yrotation Xrotation Zrotation
   JOINT RightAnkle
   {
    OFFSET 0.000000 -42.882800 0.005200
    CHANNELS 3 Yrotation Xrotation Zrotation
    JOINT RightToe
    {
     OFFSET 0.000000 -4.915500 10.826300
     CHANNELS 3 Yrotation Xrotation Zrotation
     End Site
     {
      OFFSET 0.000000 -1.517500 6.175900
     }
    }
   }
  }
 }
 JOINT LeftHip
 {
  OFFSET 8.365600 -0.032100 -0.003200
  CHANNELS 3 Yrotation Xrotation Zrotation
  JOINT LeftKnee
  {
   OFFSET 0.000000 -43.980000 0.003100
   CHANNELS 3 Yrotation Xrotation Zrotation
   JOINT LeftAnkle
   {
    OFFSET 0.000000 -42.882800 0.005200
    CHANNELS 3 Yrotation Xrotation Zrotation
    JOINT LeftToe
    {
     OFFSET 0.000000 -4.915500 10.826300
     CHANNELS 3 Yrotation Xrotation Zrotation
     End Site
     {
      OFFSET 0.000000 -1.517500 6.175900
     }
    }
   }
  }
 }
}
MOTION
Frames: 5
Frame Time: 0.008333
5.282061 126.491738 45.393588 171.688401 -20.040644 -3.398246 0.614139 12.200845 3.808161 0.023842 0.945171 0.289468 0.034581 1.607054 0.491132 0.526950 11.090011 3.450547 -1.665556 19.179964 -2.835404 -1.122974 -5.425359 -2.632901 7.299680 1.597312 -8.831707 1.862675 -37.072538 -33.845205 -128.552966 -57.693665 129.726606 -23.212052 -22.926847 -28.928410 -4.771587 5.483195 3.095082 18.480061 -40.047744 1.767422 129.068504 -51.329534 -138.133567 31.336517 -21.547828 28.127530 9.127577 -62.366483 -4.180541 -85.363720 79.032754 -78.582777 4.840988 8.161088 -16.514658 -0.001520 -0.001264 -0.000690 -20.300551 -62.458190 4.364640 106.718095 85.458725 100.084228 -4.555364 -24.097139 0.356572 0.001147 -0.002840 0.000521
5.281975 126.491692 45.393616 171.697647 -20.039222 -3.404366 0.609478 12.201891 3.813457 0.030116 0.944309 0.289318 0.034468 1.607039 0.491629 0.526697 11.089438 3.453839 -1.675247 19.191636 -2.828124 -1.132315 -5.419227 -2.627233 7.292512 1.598442 -8.835006 1.886951 -37.070067 -33.849320 -128.467902 -57.694783 129.648775 -23.210052 -22.921515 -28.928956 -4.774873 5.486185 3.094922 18.382258 -40.029449 1.868212 129.075537 -51.285938 -138.105674 31.316123 -21.508913 28.078696 9.134155 -62.366607 -4.192267 -85.361823 79.034360 -78.572973 4.844649 8.165693 -16.511525 -0.000251 -0.001854 -0.000114 -20.315179 -62.455565 4.376134 106.673181 85.458825 100.030150 -4.544983 -24.108685 0.354143 0.000634 -0.003447 0.000288
5.281739 126.491607 45.393568 171.711656 -20.037889 -3.411827 0.608279 12.202243 3.819691 0.031818 0.943253 0.289241 0.034184 1.606752 0.492179 0.524975 11.087976 3.457762 -1.686277 19.201307 -2.823924 -1.135999 -5.421694 -2.628969 7.294729 1.601549 -8.834863 1.899375 -37.069126 -33.862328 -128.364183 -57.690119 129.562901 -23.208510 -22.911903 -28.939842 -4.776751 5.497957 3.099592 18.356356 -40.034593 1.880077 129.064574 -51.355964 -138.154101 31.295513 -21.540251 28.047803 9.132072 -62.366770 -4.199924 -85.364805 79.033990 -78.569034 4.836558 8.168993 -16.507505 -0.000082 -0.002752 -0.000037 -20.332245 -62.453188 4.383852 106.621825 85.460710 99.978153 -4.548944 -24.114282 0.348957 0.000444 -0.004050 0.000202
5.280887 126.491506 45.393285 171.724947 -20.037458 -3.415944 0.623505 12.202287 3.826127 0.018330 0.942848 0.289060 0.034165 1.606519 0.492755 0.524738 11.086595 3.462018 -1.700164 19.203612 -2.824217 -1.146679 -5.397445 -2.614813 7.291314 1.600849 -8.832280 1.920802 -37.064399 -33.877575 -128.232175 -57.682937 129.458131 -23.258828 -22.874670 -28.945262 -4.781425 5.504592 3.102152 18.326908 -40.036994 1.894956 129.124062 -51.412796 -138.198527 31.260589 -21.512637 27.994773 9.132473 -62.365624 -4.212161 -85.370443 79.039113 -78.570779 4.828533 8.167814 -16.502194 -0.000950 -0.003146 -0.000431 -20.342106 -62.454525 4.384400 106.562717 85.449293 99.916367 -4.565833 -24.091110 0.350705 -0.000727 -0.002930 -0.000330
5.279848 126.491210 45.393499 171.738462 -20.034202 -3.419808 0.617414 12.200189 3.827013 0.021388 0.943254 0.289578 0.037631 1.606506 0.493895 0.518854 11.085595 3.463293 -1.703213 19.214946 -2.816910 -1.160418 -5.372338 -2.591942 7.297144 1.599161 -8.832701 1.951329 -37.063824 -33.894388 -128.121897 -57.687275 129.353978 -23.235019 -22.894957 -28.948312 -4.780623 5.502564 3.107170 18.259926 -40.034806 1.931215 129.238489 -51.486624 -138.250075 31.217647 -21.480807 27.945141 9.127534 -62.367125 -4.220629 -85.371518 79.048644 -78.574229 4.834041 8.164284 -16.497409 -0.001463 -0.003437 -0.000664 -20.350096 -62.458031 4.383440 106.435190 85.446056 99.787862 -4.569948 -24.069512 0.353662 -0.000585 -0.003595 -0.000266
